<svg width="395" height="197" viewBox="0 0 395 197" fill="none" xmlns="http://www.w3.org/2000/svg">
<path d="M341.982 106.176C339.268 104.92 336.57 103.643 333.832 102.306C330.2 100.078 324.959 98.8052 322.501 95.0779C322.013 96.3031 322.597 97.9993 321.517 98.3255C319.778 98.8744 317.836 95.9811 316.678 96.6142C315.056 97.5023 317.037 101.046 315.23 101.915C313.508 102.476 311.477 99.071 309.364 99.568C308.491 99.931 309.085 102.822 308.256 103.032C305.062 103.416 302.181 99.8229 299.084 99.8986C296.964 99.9504 298.826 104.296 297.34 104.294C292.428 104.473 288.272 98.9565 283.923 99.8791C282.242 100.335 283.386 105.698 281.789 106.608C278.594 108.427 274.062 102.965 270.469 104.473C268.438 105.415 270.937 111.627 268.906 112.193C267.5 112.476 266.055 111.394 264.609 110.404C263.437 109.369 261.406 108.051 260.312 109.557C259.53 110.687 260.624 112.381 260.312 113.887C260 114.641 259.218 114.641 258.593 114.451C257.03 113.887 255.468 112.003 253.905 113.133C252.655 114.075 253.905 116.711 252.343 117.087C247.499 118.217 244.999 112.191 242.5 108.237C241.718 111.437 241.718 115.015 240.937 118.217C239.375 116.145 238.75 113.509 236.719 111.627C235.156 110.309 233.905 112.003 232.968 113.321C231.874 115.203 228.802 119.41 228.802 119.41C228.802 119.41 226.041 112.695 223.75 109.367C222.634 107.746 221.094 104.849 219.375 106.919C216.719 110.119 216.093 114.827 214.999 118.969C214.217 121.606 212.031 124.618 212.343 126.124C214.531 137.986 224.843 143.447 230.469 153.991C232.657 158.133 231.874 163.217 231.719 167.926C229.375 167.738 227.657 165.666 225.47 164.726C227.344 170.562 229.377 176.4 230.471 182.615C226.72 179.414 222.815 176.212 218.729 173.598C218.906 176.214 219.377 178.706 219.924 181.178C220.471 183.65 221.096 186.098 221.564 188.639C216.72 185.439 212.345 181.106 208.44 176.4C207.814 183.179 209.065 189.769 209.222 196.547C205.003 193.347 201.253 189.769 197.971 184.873C197.659 184.497 197.189 184.118 196.877 184.309C192.815 188.639 189.377 194.477 184.533 196.737C185.158 189.959 185.315 183.181 185.783 176.4C181.721 181.297 177.189 186.003 172.033 189.017C172.659 186.476 173.206 183.933 173.712 181.368C174.221 178.66 174.69 176.212 175.158 173.576C170.628 175.648 166.877 179.79 162.659 182.615C164.378 176.588 166.095 170.376 168.908 164.914C166.721 166.232 164.378 167.174 162.19 168.492C161.408 163.974 162.659 159.641 164.69 155.687C170.471 145.331 178.597 138.364 182.659 127.254C178.283 120.663 176.721 112.567 172.97 105.223C172.502 104.469 171.72 104.281 171.096 104.847C168.44 107.295 164.951 118.466 164.951 118.466C164.951 118.466 161.405 116.48 160.467 114.974C159.062 112.714 158.91 112.189 157.191 110.307C156.254 109.177 154.847 109.177 154.066 110.683C152.972 112.565 152.347 114.825 150.63 115.955C149.847 112.377 148.285 108.989 147.661 105.223C146.256 108.801 144.693 113.131 141.255 114.261C138.755 115.015 136.568 113.697 136.411 110.495C136.254 109.741 135.474 109.553 135.005 109.553C133.286 109.553 131.88 111.435 130.161 110.683C128.599 110.119 129.849 108.047 129.693 106.729C129.536 106.353 129.536 105.787 129.072 105.791C126.254 105.035 123.443 109.741 121.098 108.613C119.536 107.859 121.41 102.023 119.693 101.456C116.725 100.326 112.974 104.469 109.691 103.905C108.13 101.456 109.693 95.8082 105.786 96.9383C102.192 98.0684 99.3792 103.153 95.9426 101.08C95.3173 100.705 96.5679 97.3143 95.1605 97.1263C92.1924 96.7503 89.8479 101.268 86.8798 100.138C86.568 99.9504 86.8798 98.6324 86.723 97.8783C86.5662 97.6903 86.4112 97.3143 86.0977 97.3143C83.9099 96.9383 82.1907 101.08 80.785 98.4444C80.003 97.1263 80.9418 95.2443 81.0968 93.5481C79.2226 94.112 77.8152 96.1842 75.941 96.1842C75.0039 96.1842 75.6292 94.4902 75.6274 93.5481C69.2209 98.2564 62.1908 101.832 55.3158 105.411C56.4097 102.963 57.5035 100.326 58.2839 97.6903C52.1909 99.7624 46.0962 101.08 39.8465 102.02C41.5657 99.3843 43.1281 96.7482 44.5338 93.7361C39.8465 94.8662 35.1591 95.6181 30.3151 96.3722C31.8775 93.9241 33.5967 91.4759 35.3159 89.0278C30.4718 87.8977 25.6278 88.8398 20.9405 87.3337C22.9715 85.6397 24.6907 83.5675 26.4099 81.4975C20.7854 80.7434 15.316 79.4254 9.84665 77.9193C12.3462 76.0373 15.0025 74.3411 17.347 72.2711C12.8165 69.823 7.97243 68.3169 3.28512 65.8688C5.94143 63.9867 8.75451 62.4785 11.4108 60.5965C7.66064 57.9604 4.22397 54.7603 0.628806 51.934C4.379 50.052 7.97243 47.9798 11.7226 46.2858C7.81218 41.5818 3.59343 37.2495 0 31.9773C10.4162 30.8472 20.8342 29.9678 31.1581 27.8351C33.7395 27.3014 36.3157 26.692 38.9285 26.033C54.1139 22.0443 69.6965 20.0672 84.0475 13.1484C82.2029 12.6536 80.7676 11.1713 78.7175 11.1713C90.1997 7.21712 101.476 1.53433 113.61 0.901224C115.683 0.77374 117.759 0.71756 119.841 0.743489C121.922 0.771579 124.007 0.881778 126.096 1.09353C129.377 1.4695 131.72 5.42369 134.376 8.43795C137.54 11.8736 140.539 15.4539 143.481 18.9803C151.72 29.151 160.157 38.7556 170.626 46.8519C171.563 47.5585 172.523 48.1592 173.512 48.6129C173.843 48.7642 174.176 48.9003 174.514 49.017C177.187 49.676 180.157 50.24 182.582 48.2456C182.805 48.0468 182.993 47.8243 183.12 47.565C183.247 47.3057 183.308 47.0075 183.282 46.6618C183.282 46.0978 181.877 46.6618 180.938 46.4738C181.406 44.7798 183.282 43.4617 182.812 41.5775C182.812 41.2015 182.187 41.0136 181.718 41.2015C190.624 31.221 203.749 31.5991 212.655 41.0136C210.155 41.9556 213.28 44.5918 212.967 46.2858C212.81 46.6618 212.03 46.2858 211.561 46.4738C211.092 46.6618 210.897 47.1328 210.897 47.6039C210.897 48.0749 211.092 48.546 211.406 48.7339C213.28 49.864 215.313 50.052 217.304 49.581C217.691 49.501 218.076 49.4016 218.457 49.2806C222.273 48.0728 225.898 44.8511 229.22 42.1436C238.283 34.9894 244.844 26.1389 252.033 17.444C254.377 14.4621 256.682 11.0741 259.201 8.32127C261.719 5.56846 264.454 3.44876 267.657 2.97771C276.251 1.56458 284.767 2.27115 293.262 3.61298C296.115 4.07322 298.96 4.60044 301.822 5.16008C304.739 5.67002 307.683 6.25343 310.618 6.85196C313.68 7.21712 316.551 8.20459 319.421 8.6994C317.371 9.68687 315.115 10.9228 313.065 12.1588C314.501 13.1462 316.141 13.8874 317.781 14.6307C329.878 18.3364 341.36 22.7854 353.027 26.9211C355.333 27.565 357.646 28.1225 359.968 28.613C371.574 31.0697 383.378 31.8347 395 33.4833C390.781 37.8135 387.031 42.3338 383.124 47.0399C386.718 48.546 390.156 50.8061 393.749 52.3122C390.624 55.3243 387.031 57.5844 383.906 60.5965C386.251 62.6687 389.062 63.4206 391.25 65.6808C387.188 67.7529 382.969 69.823 378.75 71.329C380.47 73.9651 383.126 75.0952 385.314 77.1652C380.47 78.2953 375.625 80.1773 370.626 80.9314C372.346 82.6255 373.751 85.0736 375.47 86.7676C371.095 87.7097 366.876 87.7097 362.502 88.4617C363.908 90.9098 365.627 92.9798 366.564 95.8061C362.034 95.4301 357.658 94.676 353.283 93.7339C354.377 96.558 355.782 99.0062 356.876 101.83C351.095 101.454 345.471 100.136 339.909 98.8873C340.637 101.4 341.268 103.622 341.982 106.176ZM181.432 52.418C178.438 50.6203 175.939 54.0084 174.324 56.7136C174.097 57.1501 173.883 57.5974 173.679 58.0511C171.645 62.5931 170.624 67.781 173.751 71.1432C180.314 78.6756 189.415 88.6086 196.876 88.09C203.124 87.6557 217.032 78.6756 221.094 67.377C222.097 64.5205 221.664 61.4738 220.57 58.5697C220.413 58.1549 220.242 57.7443 220.06 57.3359C218.905 53.6302 215.937 50.4301 213.437 52.6903C212.5 53.6324 213.594 56.4565 214.999 57.7746C214.374 58.1505 213.125 57.5866 213.437 58.9046C213.906 60.5987 215.468 61.7288 215.616 63.6043C215.637 63.9522 215.599 64.272 215.468 64.5529C215.156 65.3999 214.296 65.0714 213.28 64.6933C212.942 64.568 212.585 64.4362 212.226 64.3433C211.406 63.9867 210.781 64.1747 210.155 64.5529C209.863 64.7884 209.574 65.0196 209.29 65.2508C207.297 66.8541 204.588 67.8394 202.812 69.7625C201.059 71.6596 200.938 73.5913 199.53 75.8515C198.593 77.3575 197.342 79.2417 195.937 77.9236C193.437 75.6635 193.592 70.9574 190.781 69.4491C188.281 68.1311 185.937 66.437 183.437 64.7409C181.875 63.6108 180.001 66.2469 178.75 64.7409C177.968 63.7058 178.32 62.5282 178.809 61.2815C178.973 60.8666 179.152 60.4431 179.328 60.0261C179.53 59.2806 180.312 58.5287 180.001 57.5866C179.689 57.0226 178.907 57.5866 178.438 57.3986C179.375 56.2685 180.626 55.1384 181.129 53.3861C181.239 53.0728 181.338 52.7508 181.432 52.418ZM87.9127 11.7331C93.4779 17.3489 101.475 14.3844 107.559 11.9535C109.691 11.4133 111.788 11.0309 113.779 11.0784C115.772 11.1259 117.656 11.597 119.376 12.7724C123.751 15.8796 126.641 20.8688 129.337 26.2599C130.685 28.9544 131.985 31.7461 133.397 34.4297C137.815 44.5939 147.033 49.4902 155.315 53.8225C155.472 37.2517 145.627 24.259 136.231 13.4574C132.81 9.88134 129.024 7.00537 124.688 5.24003C122.462 4.39301 120.158 3.99327 117.804 3.8982C115.451 3.80312 113.051 4.01704 110.633 4.39949C104.345 5.48852 98.3986 7.95826 92.4119 10.0909C90.9243 10.6376 89.4246 11.1886 87.9127 11.7331ZM238.201 53.7296C249.063 48.5481 260 40.0736 264.611 26.2815C267.502 20.5857 270.627 15.5015 275.469 13.3364C278.516 12.0183 281.914 12.1134 285.495 12.7876C289.545 14.0041 293.757 15.5058 297.817 15.6916C301.877 15.8774 305.8 14.7517 309.254 10.7089C305.786 9.85325 302.384 9.09914 298.993 8.40338C295.602 7.70762 292.217 7.06803 288.808 6.45005C285.459 5.93795 282.125 5.61168 278.805 5.63545C275.49 5.66138 272.189 6.03951 268.908 6.9319C265.098 7.99067 261.885 10.374 258.957 13.4163C252.97 22.1847 243.75 28.963 240.962 40.1255C240.401 44.7776 239.345 49.1531 238.201 53.7296ZM174.803 78.0879C174.688 78.1116 174.688 78.1116 174.533 78.1116C175.627 82.4418 176.564 86.5861 177.346 91.1043C177.658 93.1138 177.942 95.1168 178.227 97.1241C180.314 110.123 183.127 123.492 189.69 134.415C195.628 128.012 195.628 117.844 191.558 110.093C190.72 108.101 189.764 106.165 188.745 104.255C185.689 98.5286 182.08 93.0511 179.473 87.0917C177.921 84.0213 176.364 81.0265 174.803 78.0879ZM218.042 78.7015C215.519 83.2132 212.88 87.7054 210.392 92.297C209.149 94.5939 207.941 96.9146 206.806 99.2741C203.125 106.921 199.532 115.205 199.532 124.056C199.532 127.822 202.031 134.412 204.219 132.718C213.439 125.374 211.563 108.993 214.27 96.7633C214.85 93.6518 215.454 90.603 216.083 87.5974C216.713 84.5917 217.367 81.6293 218.042 78.7015ZM197.1 70.428C196.658 69.004 196.137 67.6363 195.553 66.3031C195.358 65.8601 195.158 65.4193 194.949 64.9829C194.531 63.9867 194.062 63.2326 193.627 62.4051C193.395 61.9816 193.158 61.5602 192.916 61.141C192.19 59.8813 191.422 58.6389 190.626 57.3964C190.314 56.8325 192.188 56.4543 191.876 55.1363C191.72 54.5723 191.251 54.0062 190.939 54.0062C188.752 53.2521 187.189 51.934 185.783 50.052C185.315 49.2979 185.472 48.17 186.095 48.17C189.063 48.358 191.096 51.3701 192.814 53.8182C193.125 51.746 194.219 50.428 195.627 49.1099C193.439 46.6618 191.565 44.2136 188.908 42.5196C187.503 41.5775 184.064 41.9557 184.69 44.4016C184.69 44.5896 185.94 44.2136 185.94 44.5896C185.824 45.9314 185.266 47.1674 184.632 48.3666C184.421 48.7664 184.205 49.1639 184.019 49.5745C183.441 51.1799 182.659 53.0641 183.127 54.7581C183.752 56.2642 185.627 55.1341 186.691 55.9811C186.935 56.1799 187.113 56.4522 187.191 56.8303C188.597 64.5507 194.118 69.3843 197.086 75.2832C198.102 72.7421 200.159 70.1989 201.721 68.0576C201.983 67.7011 202.24 67.3446 202.495 66.988C204.066 64.9267 205.16 62.6665 205.9 60.0628C206.048 59.6501 206.207 59.259 206.374 58.8895C207.034 56.6423 209.065 56.0762 210.627 55.1341C211.878 54.38 211.41 51.934 210.934 50.3696C210.758 49.9613 210.544 49.5766 210.335 49.1942C209.276 47.2862 208.323 45.3891 209.69 43.2715C205.16 39.5053 201.721 46.6618 198.285 49.2979C199.847 49.769 201.084 51.2858 201.453 53.0857C201.526 53.4466 201.566 53.8182 201.566 54.1963C201.781 53.8657 202.014 53.5027 202.263 53.1268C204.008 50.4863 206.487 47.0874 208.128 48.7339C209.905 50.5468 205.82 52.0702 203.515 53.8096C203.186 54.0581 202.894 54.3109 202.658 54.5702C202.502 54.7581 202.345 54.9461 202.345 55.1341C202.502 56.6402 204.376 57.2063 203.596 58.3342C201.721 61.7244 199.22 63.9824 198.121 67.6968C197.957 68.1354 197.79 68.5784 197.619 69.0321C197.449 69.4859 197.276 69.9548 197.1 70.428ZM183.32 130.661C179.375 140.249 172.188 146.085 167.033 155.123C165.627 157.947 164.845 160.959 165.158 164.162C174.378 160.395 179.065 149.287 183.728 139.672C183.653 136.871 183.533 134.01 183.32 130.661ZM229.661 164.481C229.375 160.398 230 155.877 227.189 152.489C221.719 145.145 215.783 138.743 211.094 131.024C208.75 143.453 218.281 153.243 224.914 161.433C226.377 162.528 227.98 163.446 229.661 164.481ZM100.698 90.6592C105.312 87.1479 110.468 84.3238 115.422 81.5688C117.811 80.16 120.105 78.641 122.215 76.7849C124.307 74.9332 126.211 72.7443 127.811 70.0131C129.062 67.9409 128.593 65.1168 126.718 63.9867C125.78 63.4228 124.687 63.4228 123.749 64.1747C117.031 70.3891 111.093 77.7313 105.087 85.0498C103.622 86.8562 102.171 88.7404 100.698 90.6592ZM292.818 93.6345C292.97 93.5524 292.97 93.5524 293.125 93.5524C285.312 84.326 278.281 74.7236 270 65.6851C268.594 64.367 266.407 63.8031 264.999 65.3091C263.748 66.8152 263.28 68.8873 264.062 70.7694C267.03 79.2417 275.156 81.88 281.352 86.0524C285.049 88.4552 288.89 91.0006 292.818 93.6345ZM145.084 59.2396C140.938 63.6108 136.876 68.1311 134.22 73.963C133.126 76.7914 132.189 80.3696 132.969 83.1937C133.281 84.3238 135.782 84.3238 136.719 83.5697C141.25 79.8035 144.375 74.3433 147.087 68.7642C146.332 65.7024 145.684 62.5369 145.084 59.2396ZM248.171 59.138C247.501 62.2927 245.158 65.1168 245.47 68.3191C246.252 74.5334 248.283 80.9357 252.656 84.8899C254.219 86.396 256.563 85.644 257.187 83.9478C259.531 78.1116 256.25 71.1432 252.642 66.5732C251.219 64.2136 249.739 61.7504 248.171 59.138ZM140.138 93.8095C141.901 92.5217 143.437 90.966 144.838 89.2525C146.24 87.539 147.506 85.6678 148.727 83.7447C151.171 79.8986 153.437 75.8515 156.249 72.4612C148.748 67.189 142.499 76.7914 139.842 84.3152C138.748 86.584 136.874 92.0442 139.043 93.6345C139.372 93.6345 139.703 93.7339 140.138 93.8095ZM196.801 117.947C199.062 112.381 201.875 107.297 204.249 101.871C205.099 100.102 205.951 98.3363 206.802 96.5732C208.506 93.0468 210.208 89.5334 211.875 86.0178C205.625 92.6082 198.436 111.249 189.687 97.3165C187.187 93.1743 184.686 89.4081 181.406 86.396C184.063 91.6682 186.562 96.9405 189.177 102.269C190.443 104.912 191.709 107.543 192.979 110.16C194.249 112.775 195.522 115.372 196.801 117.947ZM10.8238 50.0131C22.9523 47.8394 35.0459 44.7798 46.8574 40.5533C48.0384 40.1298 49.2158 39.6955 50.3916 39.2504C58.8273 35.8796 67.2335 33.1614 75.4358 29.2072C64.9795 24.2655 53.9084 31.1843 43.945 35.0153C41.5343 36.1281 39.1236 37.2301 36.7146 38.3277C29.4842 41.6186 22.2486 44.8597 14.9659 48.1376C13.5307 48.7901 12.1581 49.4167 10.8238 50.0131ZM242.346 71.2447C240.157 71.5213 238.126 71.8973 235.938 72.4634C237.657 76.6056 239.572 80.5122 241.66 84.3497C242.705 86.2685 243.794 88.1678 244.924 90.0736C246.718 92.0464 247.812 97.6967 250.624 95.8147C251.406 93.6 251.552 91.4586 251.28 89.3757C250.463 83.1267 245.882 77.4072 243.371 71.8994C243.165 71.4867 242.975 71.087 242.346 71.2447ZM158.335 73.533C155.575 77.4223 152.671 81.1561 149.891 84.9764C148.501 86.8865 147.142 88.8182 145.852 90.8061C144.69 94.1164 140.003 97.1306 142.502 100.519C146.096 105.227 149.377 97.3186 152 94.2201C153.601 91.7784 155.087 89.2503 156.578 86.6423C157.593 84.9288 158.588 83.1829 159.574 81.4219C159.173 78.9003 158.792 76.409 158.335 73.533ZM322.154 30.1536C324.689 31.6013 327.188 32.9194 329.615 34.0883C330.853 34.6998 332.098 35.2984 333.346 35.8796C349.58 43.4401 366.639 48.4314 383.904 51.1842C366.092 43.0879 348.123 35.9315 330.445 27.5412C329.169 28.0252 327.866 28.4747 326.509 28.9155C325.83 29.1359 325.138 29.3541 324.422 29.5659C323.698 29.7711 322.943 29.9656 322.154 30.1536ZM233.641 73.9262C233.282 76.6056 231.563 79.0516 232.188 81.4997C232.813 83.5243 233.534 85.9617 234.397 88.4573C236.719 94.8683 240.937 106.731 246.407 102.023C248.594 100.141 245.47 93.7382 242.906 89.8921C241.683 87.969 240.345 86.0978 239.108 84.1596C237.87 82.2236 236.731 80.2205 235.9 78.0382C235.215 76.7633 234.508 75.5079 233.641 73.9262ZM187.081 191.387C190.626 189.019 194.376 185.253 195.001 180.733C195.653 176.024 196.14 171.219 196.252 166.424C196.308 164.028 196.268 161.631 196.109 159.255C196.024 157.094 195.787 154.978 195.432 152.911C195.078 150.841 194.609 148.818 194.062 146.841C193.087 148.816 192.286 150.875 191.62 152.993C189.624 159.341 188.847 166.197 188.199 172.861C187.947 175.901 187.745 178.935 187.513 181.912C187.372 185.331 187.271 188.464 187.081 191.387ZM111.389 93.2283C114.455 91.6877 117.782 90.8277 120.943 89.743C124.103 88.6561 127.111 87.3381 129.532 84.8899C131.72 82.6298 133.126 75.6635 131.72 74.5334C128.752 71.9924 125.901 74.393 123.096 78.0101C120.292 81.6293 117.531 86.4651 114.739 88.7987C113.708 90.093 112.697 91.4586 111.389 93.2283ZM199.959 146.681C198.75 150.039 198.281 153.805 197.816 157.53C197.652 159.406 197.576 161.301 197.565 163.204C197.537 168.915 198.124 174.706 198.75 180.354C199.062 184.685 203.28 188.263 206.719 190.523C206.614 185.877 206.337 181.255 205.9 176.651C205.682 174.35 205.425 172.051 205.128 169.758C204.217 163.032 202.969 156.253 201.387 149.423C201.157 148.287 200.81 147.349 199.959 146.681ZM279.294 95.0606C276.523 91.3873 273.809 87.6211 270.988 84.0191C268.166 80.4172 265.236 76.9816 262.033 73.9695C261.407 73.4055 259.688 73.5892 259.688 74.3433C259.063 78.8657 258.283 84.8899 261.094 87.3381C265.156 91.1043 270.639 91.3009 275.553 93.5308C276.661 93.9802 277.795 94.434 279.294 95.0606ZM205.268 140.009C211.094 152.489 214.376 168.682 226.095 175.084C224.221 161.338 214.689 152.301 208.758 141.132C207.691 140.83 206.625 140.452 205.268 140.009ZM87.4371 85.6959C88.3499 84.7106 89.2713 83.749 90.1997 82.8005C91.1839 81.7655 92.1471 80.7888 93.1295 79.8035C101.875 69.8251 114.377 63.4228 119.689 49.8662C120.471 47.794 118.283 46.6661 116.721 47.0421C114.847 47.606 113.128 48.5481 112.034 50.4323C106.096 61.7309 98.1269 69.8273 91.5218 79.8013C90.8041 80.8385 90.1109 81.8389 89.3932 82.8783C88.7366 83.816 88.0869 84.756 87.4371 85.6959ZM308.775 88.4962C308.188 87.6125 307.601 86.7287 307.012 85.8493C306.425 84.9699 305.837 84.0926 305.248 83.2175C297.814 72.0831 290.313 61.5386 281.719 51.1821C280.313 49.676 278.906 47.2279 276.656 47.8091C275.732 48.1073 274.98 48.9868 274.804 50.3675C274.614 51.4414 274.755 52.5952 275.097 53.7231C275.779 55.9833 277.265 58.1484 278.749 59.6544C286.561 67.1868 294.062 73.5892 301.385 81.2469C303.877 83.695 306.34 86.1129 308.775 88.4962ZM167.444 175.465C179.063 168.682 183.437 153.053 188.595 139.873C186.876 140.627 185.001 141.191 184.219 143.073C180.469 151.735 174.688 158.137 170.598 166.113C169.292 169.071 168.33 172.245 167.444 175.465ZM175.968 181.679C187.656 174.896 190.938 155.877 190.156 141.567C187.811 148.157 184.686 154.371 181.875 160.774C180.156 164.728 178.75 168.682 177.639 173.051C177.088 176.089 176.682 179.067 175.968 181.679ZM164.3 75.9746C163.751 62.6708 166.719 43.8398 154.219 37.0615C155.625 47.418 158.126 57.3986 161.406 66.9945C162.368 69.9526 163.333 72.9344 164.3 75.9746ZM227.396 76.5408C232.968 64.5529 237.344 51.3722 239.688 37.8135C231.719 41.5797 228.595 52.5002 229.323 62.081C228.682 66.9059 228.034 71.7007 227.396 76.5408ZM217.299 181.476C217.098 179.03 216.74 176.64 216.252 174.304C213.596 162.656 207.814 152.677 203.907 141.567C202.033 151.735 205.782 161.526 208.281 170.942C209.22 173.954 212.033 176.024 214.214 178.446C215.236 179.525 216.271 180.508 217.299 181.476ZM71.8041 38.8161C68.465 40.0823 65.1851 41.8109 61.9418 43.1635C60.3288 43.9565 58.7281 44.7841 57.1378 45.6441C52.3703 48.2219 47.7126 51.0957 43.2378 54.3951C42.0952 55.2184 40.963 56.0503 39.836 56.893C33.0724 61.9492 26.4708 67.3791 19.8414 72.4634C27.185 68.6043 35.0755 65.778 42.5602 62.109C43.6297 61.584 44.6958 61.0416 45.8001 60.4453C51.4106 56.6575 58.1428 53.9716 63.5948 49.5097C64.9569 48.3947 66.2406 47.1674 67.4077 45.7888C68.5747 44.4081 69.6355 42.8869 70.5587 41.1864C71.0011 40.3761 71.4383 39.5939 71.8041 38.8161ZM327.984 41.7655C333.907 48.7361 340.47 54.7603 347.887 59.2763C348.998 59.9375 350.125 60.5727 351.261 61.1821C359.219 65.4474 367.735 68.5071 375.939 71.5191C366.564 64.6155 356.864 58.3645 347.164 52.0486C346.193 51.4176 345.223 50.7845 344.255 50.1514C340.315 47.0399 335.939 45.3459 331.769 43.3407C330.569 42.8329 329.305 42.3057 327.984 41.7655ZM94.1415 88.3126C103.438 78.6756 114.377 71.8973 122.814 60.7867C123.908 59.6566 123.596 57.5866 123.126 55.8904C122.051 56.3377 121.03 56.8735 120.057 57.4829C115.157 60.7845 111.408 65.4928 107.812 70.6116C107.085 71.6423 106.362 72.6795 105.638 73.7145C104.911 74.7495 104.182 75.778 103.439 76.7914C102.581 77.9215 101.682 79.004 100.762 80.0606C99.8443 81.1172 98.9037 82.1501 97.9631 83.1786C96.6724 84.8554 95.4113 86.5818 94.1415 88.3126ZM334.878 95.9876C332.8 92.0356 330.635 88.036 328.324 84.1488C327.554 82.8523 326.767 81.5688 325.953 80.2962C317.19 68.695 308.596 51.5602 295.002 49.1121C303.44 61.7288 312.815 73.4033 323.043 84.071C323.912 84.918 324.784 85.7586 325.661 86.5948C326.535 87.431 327.411 88.2629 328.287 89.0926C330.517 91.4068 332.637 93.6129 334.878 95.9876ZM300.231 90.4604C292.501 79.2417 283.907 69.6371 275.469 58.9046C274.219 57.2106 272.188 56.4565 270.157 56.6445C270.469 58.5265 269.688 60.5987 270.469 61.9167C276.406 71.7093 285.156 76.2274 292.515 83.4638C295.074 85.778 297.654 88.1159 300.231 90.4604ZM63.7306 94.3C68.0156 89.5701 72.473 85.0001 76.7666 80.2594C77.6654 79.2482 78.5537 78.237 79.4665 77.1631C86.2492 67.189 95.157 59.2806 100.938 48.5481C89.6876 52.3143 81.5637 63.9889 75.0108 75.0758C74.5127 75.9077 74.0302 76.7201 73.5546 77.5304C73.0896 78.3212 72.628 79.1121 72.1699 79.8942C69.1129 84.9504 66.3173 89.756 63.7306 94.3ZM179.372 79.7171C185.313 86.02 188.907 99.0126 196.876 98.2585C204.688 97.5044 208.281 86.208 213.907 79.8057C208.178 84.4059 203.907 89.9742 197.344 92.0442C193.125 93.1743 181.978 81.7655 179.372 79.7171ZM161.41 85.8947C160.157 95.2464 162.5 104.661 163.908 113.887C165.939 109.369 166.721 101.649 172.188 101.837C170.626 96.3765 166.25 93.3644 163.563 88.8657C162.821 87.8761 162.127 86.867 161.41 85.8947ZM229.992 87.135C225.468 90.7261 223.125 96.9405 219.687 101.647C224.999 102.777 225.625 110.119 228.75 114.263C228.906 107.297 229.375 100.141 229.685 93.2175C229.777 91.1324 229.88 89.1185 229.992 87.135ZM196.719 124.808C193.906 128.574 191.718 133.47 192.031 138.555C192.343 141.945 195.313 145.521 198.124 144.015C200.312 142.885 201.314 140.832 201.354 138.051C201.406 134.412 199.22 128.386 196.719 124.808ZM160.743 72.2344C159.844 58.9025 150.938 52.5023 141.563 47.982C144.063 52.6903 147.344 56.8325 150.682 60.7845C153.944 64.6544 157.346 68.3925 160.743 72.2344ZM50.5396 93.3752C57.4652 87.3121 65.1624 81.8216 71.4906 74.7192C72.4137 73.6734 73.3108 72.5952 74.1922 71.4457C77.1881 67.5671 79.6877 62.8588 82.8126 58.9046C77.8117 60.7867 73.2812 63.8009 69.3794 68.036C68.5521 68.9543 67.7613 69.9202 67.0105 70.9055C66.2598 71.8908 65.5474 72.8934 64.8768 73.883C64.4239 74.609 63.978 75.3329 63.5286 76.0481C61.7293 78.9089 59.8707 81.6358 57.4234 83.7879C54.9134 87.2084 52.6542 90.3761 50.5396 93.3752ZM231.308 71.9535C238.908 64.931 245.94 56.8346 252.345 48.3601C247.032 51.3722 241.563 54.0084 236.792 57.9906C235.034 62.74 233.17 67.3381 231.308 71.9535ZM299.963 34.7128C294.689 26.1411 286.408 16.9146 276.72 18.6086C275.938 25.9531 282.344 31.2253 287.345 33.6735C290.627 35.3675 294.22 35.5555 297.688 35.0412C298.446 34.9505 299.2 34.8403 299.963 34.7128ZM57.1029 43.0447C53.4363 42.7119 49.6861 41.5818 46.4446 43.9587C45.2166 44.4664 44.0008 44.9958 42.7954 45.5512C33.1508 49.9807 24.1246 55.8558 15.0008 61.7288C22.7659 59.488 30.8376 57.8005 38.3763 54.5658C39.4528 54.1034 40.5188 53.6086 41.5709 53.0771C46.2512 50.8083 50.3132 47.418 54.6748 44.5486C55.4691 44.0321 56.2738 43.5308 57.1029 43.0447ZM347.462 94.1293C343.966 88.6626 340.421 83.2931 336.462 78.3709C335.673 77.3878 334.866 76.4154 334.028 75.4366C333.175 74.7214 332.297 73.8096 331.39 72.7962C325.471 66.0611 319.69 57.5866 311.095 55.8925C317.502 63.0468 322.189 72.0853 329.059 78.7037C329.883 79.4902 330.722 80.2465 331.576 80.9811C333.283 82.4461 335.04 83.8139 336.822 85.0844C340.719 88.3536 344.156 91.2771 347.462 94.1293ZM93.8524 32.9431C96.0001 33.2499 98.3411 33.2737 100.696 32.9712C103.053 32.6709 105.415 32.0313 107.608 31.0092C111.994 28.9652 115.704 25.3869 117.345 19.9267C117.656 18.7966 117.501 16.7266 116.251 16.3485C115.157 15.7845 113.906 16.1605 112.814 16.7245C110.94 17.6666 109.259 18.8895 107.582 20.1406C103.73 23.0296 99.4263 25.5015 96.3049 29.8165C95.4584 30.8472 94.6466 31.8973 93.8524 32.9431ZM130.025 67.1674C129.687 69.2612 130.469 71.8973 132.032 70.9552C137.033 68.3191 139.844 62.2949 143.126 57.3986C139.219 54.9505 133.438 56.6445 131.861 61.8281C130.456 63.5719 129.553 65.3545 130.025 67.1674ZM380.645 61.6337C370.313 55.5144 359.844 49.8662 348.907 45.3459C346.72 44.4038 344.532 45.3459 342.344 46.1C351.875 53.8204 362.969 57.9626 374.183 60.1968C376.432 60.7326 378.571 61.2015 380.645 61.6337ZM249.929 57.5088C252.501 62.8437 254.844 68.2218 259.22 71.8865C260.47 73.0252 261.876 70.9552 262.033 69.0732C262.505 63.9889 260.157 59.4383 256.853 56.4911C254.546 56.826 252.254 57.1544 249.929 57.5088ZM74.7391 60.9638C73.9065 60.4107 72.5008 61.9167 72.6559 60.4107C72.8126 58.3385 74.2183 57.2106 75.3122 55.8925C78.437 52.1263 82.499 49.6782 84.6868 44.9721C82.0305 48.3623 78.7488 50.8083 75.5595 53.7253C74.5998 54.5378 73.6452 55.3091 72.6889 56.0632C66.0281 61.2923 59.2419 65.8061 53.4659 72.2408C52.487 73.3061 51.5186 74.3757 50.5553 75.4496C46.7006 79.7452 42.9156 84.1401 39.2176 88.6583C44.1976 85.3631 48.8727 81.4802 53.5199 77.5239C54.4501 76.7331 55.3785 75.9401 56.3069 75.1471C59.4962 72.3532 62.7831 69.7495 66.1448 67.2711C67.8257 66.033 69.5258 64.8251 71.2502 63.6302C72.3859 62.7962 73.5477 61.9124 74.7391 60.9638ZM357.808 88.2521C357.97 88.278 357.97 88.09 358.125 88.09C353.959 82.5974 349.412 77.5628 344.678 72.7832C343.732 71.826 342.781 70.8817 341.813 69.9159C339.346 67.4029 336.876 64.8986 334.384 62.4202C333.551 61.5926 332.717 60.7672 331.877 59.944C326.563 54.5745 320.938 49.4902 315.312 44.4059C319.219 50.9963 327.343 53.8204 328.125 62.6708C327.343 62.6708 326.563 61.7288 325.626 62.2949C328.439 65.307 331.564 67.5671 334.534 70.1752C335.234 70.7391 335.934 71.2988 336.634 71.8562C337.334 72.4137 338.036 72.969 338.738 73.5222C339.618 74.1747 340.491 74.8121 341.363 75.4539C343.983 77.3791 346.584 79.3541 349.127 81.4565C352.372 83.9738 355.204 86.1929 357.808 88.2521ZM30.5851 81.2318C35.875 77.969 41.2939 74.8575 46.5508 71.437C47.6029 70.7521 48.648 70.0563 49.6914 69.3389C58.1254 63.1657 67.1969 57.9734 75.1902 50.9574C76.0786 50.1773 76.9547 49.3757 77.8169 48.5416C76.6255 48.8852 75.4393 49.246 74.2566 49.6328C63.6174 53.1073 53.2952 58.5719 44.9901 67.4677C44.1854 68.3061 43.3841 69.151 42.5794 69.985C41.7747 70.8212 40.9682 71.6488 40.1565 72.4591C38.9059 73.7771 37.657 74.7192 36.2112 75.7391C34.2011 77.7076 32.3635 79.501 30.5851 81.2318ZM134.253 43.2672C132.518 46.0006 129.306 48.8874 127.115 51.8951C124.923 54.9029 123.751 58.0576 126.096 61.3528C128.752 64.931 132.971 58.3148 134.357 54.3195C134.27 50.9941 134.241 47.4915 134.253 43.2672ZM328.381 52.2841C329.054 53.0187 329.724 53.7577 330.397 54.4989C331.067 55.2378 331.74 55.979 332.415 56.7158C336.467 61.1389 340.628 65.4453 345.321 68.6864C346.277 69.3433 347.247 69.9785 348.226 70.5965C354.103 74.2979 360.313 77.3575 366.251 80.7477C360.907 75.7758 355.507 70.737 349.898 66.1086C348.963 65.3372 348.022 64.5766 347.077 63.829C341.875 59.6587 336.875 55.5166 330.956 53.5741C330.13 53.1743 329.27 52.7422 328.381 52.2841ZM259.619 43.9932C258.873 47.3597 258.617 51.4932 259.349 55.065C260.08 58.6367 261.801 61.6272 265.027 62.6881C269.169 64.2612 268.842 57.4677 267.565 54.3476C265.025 51.0913 262.486 47.7811 259.619 43.9932ZM166.501 71.7287C169.219 67.001 171.563 61.8346 172.345 56.2167C172.97 51.8044 167.344 51.7569 165.313 48.4876C165.157 52.4591 165.625 56.6121 165.766 60.67C166.01 64.4167 166.256 68.0792 166.501 71.7287ZM222.918 71.5343C221.425 75.7348 220.239 80.0844 219.232 84.5096C218.729 86.7223 218.272 88.9565 217.844 91.2015C216.407 98.2585 215.47 105.415 213.907 112.381C216.407 104.661 218.595 96.9405 221.234 89.1531C221.836 87.3057 222.444 85.456 223.05 83.6021C223.656 81.7482 224.263 79.8899 224.865 78.023C224.207 75.8752 223.569 73.708 222.918 71.5343ZM81.2327 82.5174C90.4697 71.5213 100.47 61.7288 109.844 50.9963C96.5627 52.3143 90.0011 68.8852 82.5722 80.2335C82.1088 81.0135 81.6629 81.7763 81.2327 82.5174ZM286.161 52.7919C295.781 64.1769 306.406 74.1574 316.563 84.8899C308.594 72.6514 302.033 56.4565 288.073 53.7059C287.438 53.3969 286.804 53.09 286.161 52.7919ZM228.631 48.546C226.564 51.3874 221.876 52.055 221.876 55.6894C221.876 60.8536 224.064 66.1994 226.252 71.1821C226.877 67.7119 227.189 64.0472 227.691 60.3351C228.11 56.6164 228.431 52.7141 228.631 48.546ZM123.222 97.6687C127.345 96.3765 132.189 96.9405 135.469 93.9284C136.874 92.7983 137.656 88.2802 136.406 86.584C134.375 83.7598 130.781 86.7719 128.954 89.8251C127.151 92.1847 125.338 94.6609 123.222 97.6687ZM266.391 99.8964C263.593 95.8104 261.094 91.4802 257.655 88.09C256.562 87.1479 253.749 86.9578 253.437 88.2758C252.89 89.972 252.695 92.4656 253.216 94.4923C253.736 96.5191 254.973 98.0727 257.29 97.8891C258.692 98.17 260.12 98.4638 261.62 98.7901C263.121 99.1185 264.696 99.4794 266.391 99.8964ZM158.875 87.4936C154.376 93.3623 147.501 101.083 151.25 109.743C155.157 106.543 156.094 100.705 158.475 96.2706C159.933 93.4076 159.372 90.4798 158.875 87.4936ZM170.145 71.9643C168.75 73.7793 167.344 76.0395 167.97 78.4876C168.36 80.307 168.785 82.1025 169.241 83.8744C169.696 85.6484 170.18 87.4007 170.69 89.1358C173.127 96.3744 175.627 103.719 178.595 110.685C177.344 105.601 176.095 100.517 174.982 95.1708C174.521 92.7551 174.064 90.3588 173.585 87.9625C173.106 85.5662 172.606 83.1721 172.068 80.7802C171.431 77.8005 170.79 74.8683 170.145 71.9643ZM232.063 88.1959C230.002 96.9405 235.158 105.225 239.845 111.251C242.658 105.037 237.501 99.3886 235.149 94.0407C234.125 92.0788 233.102 90.1427 232.063 88.1959ZM282.954 16.6467C288.282 20.8688 294.22 23.3169 300.486 23.8139C301.264 23.8766 302.038 23.9003 302.804 23.8874C305.102 23.8442 307.324 23.4466 309.362 22.6212C306.852 19.756 303.684 18.613 300.395 18.008C298.753 17.7054 297.07 17.5347 295.419 17.3489C294.593 17.256 293.774 17.1609 292.971 17.0421C290.939 16.5408 288.751 16.3528 286.725 16.2707C285.44 16.2275 284.175 16.3053 282.954 16.6467ZM110.994 15.6462C102.91 14.877 93.6834 15.3718 87.1236 21.7958C94.0945 24.2677 102.295 21.7958 108.513 17.1588C109.348 16.6337 110.173 16.1195 110.994 15.6462ZM120.769 52.2819C120.771 52.8091 120.625 53.4768 120.942 53.466C122.21 53.7512 123.77 53.211 124.533 52.202C127.447 48.7901 132.243 45.1039 131.429 41.7461C130.849 39.3001 129.788 38.4509 128.553 38.6108C124.688 40.0736 121.563 44.7819 121.158 49.6004C121.027 50.4863 120.9 51.3744 120.769 52.2819ZM273.167 53.036C273.188 52.0594 273.128 51.0762 272.994 50.106C272.344 45.3459 269.688 40.8277 265.94 39.1337C265.079 38.8506 264.335 39.3195 263.593 39.9526C262.851 40.5857 262.109 41.3809 261.249 41.7504C264.536 46.1021 266.913 52.1501 272.021 54.218C272.987 54.4103 273.416 54.2763 273.167 53.036ZM19.8832 32.1501C24.2447 32.3446 28.7317 32.5563 33.217 32.4461C35.4587 32.3921 37.7005 32.256 39.9266 31.9989C46.7302 31.1843 53.7011 29.4535 60.0571 26.4889C53.2918 25.0067 46.3191 27.2301 39.5921 28.3385C37.5646 28.7707 35.565 29.2028 33.5619 29.6112C31.5588 30.0196 29.5539 30.4021 27.5299 30.7564C24.9119 31.2577 22.3705 31.718 19.8832 32.1501ZM374.807 33.9803C368.498 32.9799 362.257 31.3009 355.991 29.8986C353.903 29.4297 351.813 28.9933 349.714 28.6216C345.666 27.727 341.36 27.4786 337.03 27.4591C338.644 28.4639 340.299 29.3217 341.983 30.052C350.405 33.7102 359.599 34.2072 368.533 34.0559C370.71 34.084 372.785 34.0343 374.807 33.9803ZM286.753 41.6834C287.188 41.9578 287.657 42.1458 287.969 42.5239C287.187 34.4276 279.843 29.7193 274.219 25.5771C272.813 24.447 270.937 25.7651 269.375 26.7072C273.593 31.9794 278.124 37.2517 283.588 40.3243C284.611 40.8666 285.664 41.3225 286.753 41.6834ZM267.955 29.2677C266.251 37.8156 272.97 45.1601 279.533 46.2901C279.221 39.1359 274.064 35.1795 269.927 31.1648C269.263 30.5209 268.608 29.8921 267.955 29.2677ZM105.739 39.9267C112.969 38.1916 120.626 33.8614 123.283 25.5749C123.594 24.6328 120.938 23.6929 119.689 24.2569C113.751 27.269 108.752 32.7292 104.5 38.7966C103.971 40.227 104.258 40.5209 105.739 39.9267ZM125.982 28.2478C121.875 33.1073 114.063 36.8735 115 45.1579C120.938 44.2158 127.031 38.0036 125.908 30.2206C125.864 29.7625 125.942 29.2525 125.982 28.2478ZM186.768 60.0434C186.863 59.4535 186.839 58.9392 186.726 58.4963C186.613 58.0533 186.407 57.6816 186.144 57.3748C185.158 56.0784 183.596 56.0784 182.345 56.8325C181.094 57.7746 180.314 59.0926 180.02 60.7996C179.967 61.2058 179.95 61.6034 179.971 61.9708C179.992 62.3381 180.053 62.6752 180.157 62.9604C180.626 64.501 183.282 62.6427 185.028 62.7162C186.903 62.3748 186.903 62.3748 186.768 60.0434ZM207.501 61.4781C207.95 62.1566 212.502 64.743 213.439 62.4829C214.376 60.4107 212.033 57.9647 210.157 57.3986C209.063 57.0226 207.189 57.0226 207.489 59.1683C207.476 59.4556 207.137 60.9293 207.501 61.4781ZM131.61 101.597C134.084 101.856 136.771 101.325 139.142 100.415C140.245 99.8618 140.178 96.7741 139.384 96.007C138.754 95.4366 137.813 95.2464 137.132 95.9379C135.287 97.7011 133.46 99.6069 131.61 101.597ZM257.602 104.708C255.469 102.591 252.5 96.0005 249.843 99.0126C249.375 99.7668 248.593 102.779 250.348 103.386C252.728 103.721 255.146 104.177 257.602 104.708ZM230.861 112.887C234.533 110.123 233.75 104.473 231.408 101.085C231.251 102.967 231.096 105.039 231.089 106.943C231.009 108.855 230.934 110.795 230.861 112.887ZM159.609 100.655C156.25 103.907 158.281 109.933 161.406 112.193C161.095 110.121 160.781 108.239 160.424 106.137C160.121 104.235 159.851 102.42 159.609 100.655ZM250.89 110.689C248.763 104.933 247.847 104.218 244.971 105.8C246.811 107.316 248.655 108.84 250.89 110.689ZM138.98 107.444C141.121 105.858 142.932 104.557 144.869 103.202C141.196 101.783 140.729 102.111 138.98 107.444Z" fill="black"/>
</svg>
