<svg width="72" height="82" viewBox="0 0 72 82" fill="none" xmlns="http://www.w3.org/2000/svg">
<path d="M70.8125 33.9711C66.0607 29.0724 59.9735 25.6789 53.3081 24.2125C48.4146 22.9826 43.3966 22.3158 38.3517 22.2251V8.72102C38.2719 6.43209 37.2889 4.26789 35.6177 2.70176C33.9466 1.13563 31.7232 0.295019 29.4339 0.363772C27.1446 0.295019 24.9212 1.13563 23.2501 2.70176C21.5789 4.26789 20.5959 6.43209 20.5161 8.72102V34.2004L16.4394 30.1747C14.6436 28.4131 12.2284 27.4263 9.71283 27.4263C7.19726 27.4263 4.78208 28.4131 2.98626 30.1747C2.08651 31.044 1.37034 32.0849 0.880165 33.236C0.389988 34.387 0.135769 35.6247 0.132562 36.8758C0.0858443 39.3014 1.002 41.6468 2.6805 43.3985L14.5539 57.4632C15.1267 61.0568 16.3622 64.5126 18.1975 67.6549C19.5383 70.0713 21.2589 72.2565 23.2934 74.1267V79.0188C23.2853 79.7163 23.5451 80.3904 24.019 80.9023C24.493 81.4142 25.1452 81.7249 25.8413 81.7705H61.2832C61.9793 81.7249 62.6315 81.4142 63.1055 80.9023C63.5794 80.3904 63.8391 79.7163 63.8311 79.0188V72.1393C68.8378 66.1778 71.5488 58.6231 71.4749 50.8385V35.5509C71.4431 34.9636 71.209 34.4055 70.8125 33.9711ZM66.3791 50.9659C66.5419 57.7402 64.1807 64.3332 59.7544 69.464C59.192 69.9221 58.8271 70.5789 58.7352 71.2985V76.802H28.5166V73.0311C28.5173 72.6137 28.4154 72.2026 28.2199 71.8339C28.0244 71.4651 27.7413 71.15 27.3955 70.9163C25.4861 69.3508 23.9093 67.4189 22.7583 65.2344C21.1352 62.4859 20.0945 59.4332 19.7008 56.2656C19.6734 55.7143 19.4678 55.1867 19.1147 54.7623L6.57886 39.9333C6.17056 39.5304 5.84637 39.0504 5.6251 38.5211C5.40382 37.9919 5.28988 37.4239 5.28988 36.8503C5.28988 36.2767 5.40382 35.7087 5.6251 35.1795C5.84637 34.6503 6.17056 34.1702 6.57886 33.7673C7.41779 32.941 8.54806 32.4779 9.72556 32.4779C10.9031 32.4779 12.0333 32.941 12.8723 33.7673L20.5161 41.4111V49.4117L25.612 46.8637V8.72102C25.7026 7.78827 26.1517 6.92708 26.8645 6.31877C27.5774 5.71045 28.4985 5.40247 29.4339 5.45966C30.3693 5.40247 31.2904 5.71045 32.0033 6.31877C32.7161 6.92708 33.1652 7.78827 33.2558 8.72102V38.7867L38.3517 39.8824V27.3465C40.49 27.3887 42.6246 27.5417 44.747 27.8051V41.1308L48.8237 42.0226V28.3911C49.8684 28.595 50.9385 28.8243 52.0341 29.1046C53.3551 29.4502 54.6565 29.867 55.9325 30.3531V43.475L60.0092 44.3667V32.2131C62.3253 33.3821 64.4688 34.8655 66.3791 36.621V50.9659Z" fill="#336699"/>
</svg>
