<svg width="166" height="41" viewBox="0 0 166 41" fill="none" xmlns="http://www.w3.org/2000/svg">
<path d="M31.8321 13.8464C31.706 12.1152 31.4333 10.477 31.0182 8.92782C30.5991 7.37863 30.0497 6.18134 29.3579 5.33191C28.6702 4.48653 27.7098 3.74631 26.4768 3.11531C25.2437 2.48431 23.8032 2.05959 22.151 1.84521C20.4988 1.63084 18.46 1.51758 16.0306 1.51758H9.50329H1.66968H0.798828V39.4749H1.66968H9.50329H16.0306C18.46 39.4749 20.4988 39.3656 22.151 39.1513C23.7991 38.9369 25.2437 38.5122 26.4768 37.8812C27.7098 37.2502 28.6702 36.5099 29.3579 35.6646C30.0456 34.8192 30.5991 33.6178 31.0182 32.0687C31.4333 30.5195 31.706 28.8772 31.8321 27.1501C31.9583 25.4229 32.0234 23.2022 32.0234 20.5003C32.0234 17.7983 31.9583 15.5776 31.8321 13.8464ZM19.2943 28.0116C18.7856 29.0916 17.6624 29.6336 15.9207 29.6336H12.7669V11.3588H15.9207C17.6624 11.3588 18.7856 11.9008 19.2943 12.9808C19.8029 14.0608 20.0553 16.5686 20.0553 20.4962C20.0553 24.4238 19.8029 26.9316 19.2943 28.0116Z" fill="#191918"/>
<path d="M61.7749 29.6336H54.9138H47.3041V25.3622H52.6268H60.1919V24.6584V16.2248V15.521H52.6268H47.3041V11.3588H54.6412H61.5022H62.2103V10.655V2.22139V1.51758H61.5022H54.6412H43.3323C39.853 1.51758 37.6474 2.23757 36.7236 3.6816C35.7998 5.12158 35.3359 8.13502 35.3359 12.7098V28.2826C35.3359 32.8615 35.7998 35.8709 36.7236 37.3108C37.6474 38.7508 39.853 39.4749 43.3323 39.4749H54.9138H61.7749H62.4829V38.771V30.3374V29.6336H61.7749Z" fill="#191918"/>
<path d="M130.638 9.92663C130.129 7.38644 129.238 5.38017 127.809 4.06154C127.61 3.87952 127.203 3.52761 126.991 3.35773C124.839 1.62651 120.92 0.870117 115.406 0.870117C109.859 0.870117 105.92 1.62651 103.763 3.35773C103.552 3.52761 103.145 3.87547 102.949 4.06154C101.55 5.37208 100.683 7.38644 100.174 9.92663C99.6654 12.4668 99.4131 15.9899 99.4131 20.4959C99.4131 25.0384 99.6572 28.5776 100.15 31.1219C100.638 33.6621 101.505 35.6926 102.949 36.987C103.157 37.173 103.601 37.5168 103.82 37.6908C105.965 39.3532 109.859 40.1218 115.406 40.1218C120.92 40.1218 124.847 39.3977 126.991 37.6908C127.203 37.5249 127.61 37.169 127.809 36.987C129.234 35.6683 130.129 33.6621 130.638 31.1219C131.146 28.5817 131.399 25.0384 131.399 20.4959C131.399 15.9899 131.142 12.4668 130.638 9.92663ZM119.105 26.903C118.889 28.2176 118.515 29.1116 117.99 29.5808C117.465 30.05 116.602 30.2846 115.406 30.2846C114.209 30.2846 113.347 30.05 112.822 29.5808C112.297 29.1116 111.927 28.2217 111.707 26.903C111.491 25.5885 111.381 23.4528 111.381 20.4959C111.381 17.5391 111.491 15.4034 111.707 14.0888C111.927 12.7742 112.297 11.8803 112.822 11.4111C113.347 10.9419 114.209 10.7073 115.406 10.7073C116.602 10.7073 117.465 10.9419 117.99 11.4111C118.515 11.8803 118.889 12.7702 119.105 14.0888C119.321 15.4034 119.43 17.5391 119.43 20.4959C119.43 23.4528 119.321 25.5885 119.105 26.903Z" fill="#191918"/>
<path d="M163.094 34.714L160.388 28.3352C162.203 27.2916 163.423 25.8112 164.058 23.902C164.693 21.9928 165.011 19.307 165.011 15.8446C165.011 12.8878 164.811 10.566 164.412 8.87119C164.014 7.17638 163.2 5.7364 161.967 4.5472C160.734 3.358 159.073 2.55712 156.99 2.14049C154.906 1.72791 152.086 1.51758 148.529 1.51758H146.951H135.691H134.982V2.22139V5.94674V34.71V38.771V39.4708H135.695L135.691 39.4749H146.242L146.238 39.4708H146.951V38.771V34.71V30.1756H149.29L152.391 38.8803L152.603 39.4749H153.205H164.246H165.141L163.094 34.714ZM152.363 19.4445C151.911 20.0391 150.959 20.3385 149.506 20.3385H146.951V11.3588H149.506C150.955 11.3588 151.907 11.6581 152.363 12.2527C152.815 12.8473 153.042 14.0446 153.042 15.8486C153.042 17.6486 152.819 18.8499 152.363 19.4445Z" fill="#191918"/>
<path d="M95.8801 23.8492H85.3281H84.616V24.65C84.5712 26.8666 84.2864 28.3592 83.7492 29.1237C83.2039 29.9003 82.2435 30.2846 80.8681 30.2846C79.2729 30.2846 78.2392 29.7062 77.7672 28.5534C77.2951 27.4006 77.0591 24.7148 77.0591 20.4959C77.0591 16.2771 77.2951 13.5913 77.7672 12.4385C78.2392 11.2857 79.2729 10.7073 80.8681 10.7073C82.2476 10.7073 83.208 11.0956 83.7492 11.8682C84.2742 12.6165 84.5631 14.0726 84.6119 16.2164V17.1387H85.3281H95.8801H96.5882V16.443V16.1922V15.5814C96.5882 9.88618 95.4813 6.01118 93.2716 3.95637C91.0578 1.89752 86.9233 0.870117 80.864 0.870117C77.4213 0.870117 74.6988 1.14112 72.7048 1.68314C70.7108 2.22516 69.1238 3.28896 67.9436 4.87456C66.7635 6.46016 65.9944 8.42598 65.6322 10.768C65.27 13.11 65.0869 16.354 65.0869 20.5C65.0869 24.646 65.27 27.89 65.6322 30.232C65.9944 32.574 66.7676 34.5398 67.9436 36.1254C69.1238 37.711 70.7068 38.7748 72.7048 39.3168C74.6988 39.8588 77.4213 40.1258 80.864 40.1258C86.9193 40.1258 91.0538 39.0984 93.2675 37.0436C95.4772 34.9888 96.5841 31.1138 96.5841 25.4186V24.6217L96.5882 23.8532H95.8801V23.8492Z" fill="#191918"/>
<path d="M13.3865 30.7012C13.3255 30.596 13.3825 30.5151 13.4109 30.4787C13.415 30.2199 13.6836 29.7183 13.9888 29.1075L15.4131 26.6361C16.7641 24.65 18.4855 22.1584 20.333 19.6222L21.2445 18.3724C24.6262 13.7248 28.2276 9.09742 29.892 7.64126C30.181 7.43497 30.6734 7.39857 30.9948 7.59677C31.2187 7.80306 31.2309 8.17114 30.9135 8.41383C29.3264 9.8255 25.3791 14.9949 21.6515 20.1117C19.804 22.6519 18.0338 25.1476 16.8292 27.1215C18.8314 25.459 24.3454 21.9804 26.2865 22.1301C26.7016 22.1382 27.1493 22.2878 27.3161 22.571L27.4463 22.7085C27.9428 23.3719 27.605 24.286 26.9499 25.184C26.5226 25.7705 25.9773 26.3287 25.4401 26.81L24.6425 27.4612C27.2835 26.9678 32.5046 24.917 35.109 23.5781C35.8863 23.1494 34.7102 24.3831 33.8963 24.9251C30.653 27.0163 26.0749 28.7596 21.7085 29.1237L21.3137 29.152L21.0899 29.2046C20.215 29.3826 17.4437 29.4756 16.7885 28.97L16.7194 28.9376L16.288 29.3381L15.1974 30.4545C15.0468 30.7255 14.8067 30.9277 14.6725 31.0491C14.6236 31.0531 14.5178 31.134 14.3917 31.1825C14.3428 31.1866 14.0091 31.3241 13.6592 31.1623C13.4516 30.9924 13.358 30.7416 13.3865 30.7012ZM18.9901 28.254C21.2568 28.0842 24.3943 26.3368 25.729 24.5004C26.1278 23.9543 26.2621 23.5741 26.14 23.3597L26.1075 23.2141L26.0098 23.2222C24.0239 23.7763 21.6027 25.4347 17.6187 28.0963L17.6879 28.1286C18.0582 28.2459 18.4936 28.2904 18.9901 28.254Z" fill="#336699"/>
<path d="M40.917 24.1767C40.746 24.6701 40.3676 25.2526 39.7938 25.8472C37.93 27.8332 35.1994 28.9618 33.0182 29.0144C31.2521 29.071 30.9021 27.9546 31.4515 26.8787C32.302 25.2647 34.9471 23.2949 36.3063 22.8944C36.404 22.8863 36.4813 22.8459 36.579 22.8378C37.1731 22.2756 37.8323 21.8225 38.7887 21.7861C40.0054 21.8428 40.7176 22.2715 40.9454 22.9187C42.093 22.943 43.3423 22.8863 44.4777 22.8014C46.7932 22.6275 48.8279 22.3281 49.2715 22.2958C50.7283 22.1502 50.0121 22.6841 48.6041 23.0845C47.2937 23.4809 43.8347 24.0715 40.917 24.1767ZM33.2583 26.6319C32.6805 27.7483 32.9084 28.1366 33.8728 28.0274C36.0988 27.7888 38.8009 25.4791 39.0369 24.1322C38.0195 24.0594 37.2504 23.8976 36.8191 23.5942L36.6644 23.6791C35.7407 24.12 33.8077 25.556 33.2583 26.6319Z" fill="#336699"/>
<path d="M47.5173 25.3463C47.6597 24.8932 47.9324 24.3917 48.3027 23.8861C48.7584 23.2631 49.3892 22.5876 50.1827 22.0092C50.7118 21.6007 51.2652 21.2286 51.7942 21.0749C52.2459 20.9697 52.6447 21.1234 52.7831 21.4429C52.9499 21.7261 52.6813 21.9688 52.3477 22.1023C51.4035 22.5068 50.1339 23.6717 49.3933 24.6869C48.8805 25.3908 48.6241 26.0015 48.966 26.2321C50.1909 27.1746 56.5025 22.7899 57.9227 21.354C58.468 20.7958 59.6807 21.3701 59.1558 21.9647C58.9075 22.2438 58.4029 22.8708 57.8902 23.5746C57.4059 24.4968 57.0682 25.4069 58.3622 25.4231C61.8456 25.051 66.3098 22.7616 68.8735 21.3499C69.6589 20.8483 68.7555 22.0254 67.6242 22.8101C65.7563 24.0924 61.7073 26.3898 58.4233 26.4869C56.5025 26.6285 55.6561 25.8074 55.9043 24.5696C54.0934 25.775 51.6721 27.2514 49.6496 27.4011C48.0259 27.5265 47.09 26.6325 47.5173 25.3463Z" fill="#336699"/>
<path d="M65.6216 24.8887C67.2372 22.668 68.7876 20.6011 69.923 19.1045C71.2781 17.3045 73.0198 15.0394 74.8632 12.6933C70.6636 13.2596 66.7326 13.7693 62.4841 14.5944C61.483 14.7765 61.1941 13.8583 62.126 13.6439C65.9146 12.8915 69.5608 12.3293 75.7748 11.5041C78.1391 8.50687 80.5807 5.46511 82.5015 3.07862C82.9003 2.47189 84.6135 2.55683 84.2025 3.31323C82.473 5.25073 80.011 8.25609 77.6467 11.2534C78.0821 11.221 78.5908 11.1482 79.1035 11.0713C83.3723 10.5374 89.1224 9.78101 93.8511 9.42911C96.602 9.22282 99.0273 9.15001 100.541 9.32798C100.863 9.44933 101.07 9.79315 101.095 10.0116C100.92 10.3149 100.566 10.4848 100.212 10.4767C98.2908 10.2947 95.6742 10.3837 92.7767 10.5981C87.6127 10.9823 81.6917 11.7873 77.8542 12.2888C77.4392 12.3576 77.077 12.4183 76.6904 12.4466L71.6728 18.8982C69.8416 21.3494 67.0825 24.9575 64.5473 28.4361C61.7068 32.3394 59.1716 36.0728 58.4879 37.8243C57.9915 38.6939 57.0799 38.0022 57.3282 37.2256C57.7677 35.9312 61.894 30.0136 65.6216 24.8887Z" fill="#336699"/>
<path d="M74.1833 21.7299C75.0663 20.5204 76.2424 19.2868 77.2679 18.5829C77.4591 18.3847 77.98 18.3079 78.4846 18.3807C78.9119 18.498 78.9811 18.7852 78.7898 18.9874C78.1672 19.3272 73.9717 23.817 74.3379 24.2701C74.5617 24.4764 74.9687 24.5573 75.5099 24.5168C78.566 24.2903 86.0619 20.7753 88.3936 19.493C88.7029 19.3232 89.0244 19.5214 87.8076 20.4234C85.8747 21.8593 79.1479 25.2813 75.6645 25.6534C74.403 25.7829 73.2432 25.6494 72.9055 24.897C72.6206 24.3226 73.2432 23.0202 74.1833 21.7299ZM80.381 15.1367C80.5641 15.0113 81.4797 14.2064 81.7198 14.0041L82.2448 13.4095C82.4157 13.1749 83.0139 13.0576 83.3923 13.1749C83.9458 13.2437 84.1126 13.5268 83.8725 13.7291C83.7586 13.8868 83.5592 14.1578 83.2418 14.4046C83.0017 14.6068 81.9802 15.4967 81.6913 15.703C81.4309 15.8688 80.8367 15.9133 80.5356 15.7515C80.0595 15.6383 80.0188 15.3106 80.381 15.1367Z" fill="#336699"/>
<path d="M96.3161 28.0558C94.3953 28.1974 92.4461 28.3834 90.5172 28.5978C89.0603 30.4059 87.6482 32.2827 86.3135 34.1191C85.2066 35.644 84.173 37.1244 83.2207 38.5604C83.1393 38.8637 82.6388 38.9729 82.3336 38.884C81.9836 38.7262 82.3661 38.3258 82.4679 38.0628C84.0712 35.5429 85.8495 32.9703 87.754 30.3533L88.8609 28.8284C86.8547 29.0913 84.7712 29.3906 82.708 29.7304C82.3132 29.7587 81.9633 29.6009 81.9918 29.3016C81.9022 28.974 82.1016 28.703 82.5248 28.6342C84.9706 28.1569 87.3512 27.8293 89.7725 27.5744C91.4694 25.3053 93.2966 22.9916 95.2173 20.6658C92.4705 22.1988 88.1773 24.5165 86.0083 24.4194C85.0113 24.383 84.2625 23.8127 84.1485 23.0078C84.116 22.6033 84.2096 22.1543 84.5433 21.7579C85.0072 21.0581 86.0327 20.3543 87.1884 19.788C88.6778 19.0842 90.5172 18.5422 92.5397 18.3925C93.6221 18.3116 94.7493 18.2995 96.3283 18.6271L98.1392 17.4218C98.8757 16.9242 99.5472 17.2802 99.2908 17.891C99.0629 18.4613 98.3792 19.1408 97.2398 20.5201C95.3598 22.6558 93.4349 24.9776 91.4775 27.4126C93.5733 27.2185 95.7423 27.0567 98.0089 26.8868C99.6041 26.8059 99.303 27.8616 98.1961 27.9061L96.3161 28.0558ZM94.7371 19.602L94.9406 19.513L94.4563 19.4766C93.9721 19.4402 93.3576 19.4482 92.7675 19.4927C90.9933 19.6262 89.3289 20.1197 87.9982 20.7345C86.6349 21.3898 85.2066 22.4576 85.7722 23.1534C87.1721 23.7884 91.9374 21.1431 94.7371 19.602Z" fill="#336699"/>
<path d="M101.355 21.3248C101.498 20.8718 101.771 20.3702 102.141 19.8646C102.597 19.2417 103.227 18.5662 104.021 17.9877C104.55 17.5792 105.103 17.203 105.632 17.0534C106.084 16.9482 106.483 17.1019 106.621 17.4215C106.788 17.7046 106.52 17.9473 106.186 18.0808C105.242 18.4853 103.972 19.6502 103.231 20.6655C102.719 21.3693 102.462 21.9801 102.804 22.2106C104.029 23.1531 110.341 18.7684 111.761 17.3325C112.306 16.7743 113.519 17.3487 112.994 17.9433C112.746 18.2183 112.241 18.8493 111.728 19.5531C111.244 20.4754 110.906 21.3895 112.2 21.4016C115.684 21.0295 120.148 18.7401 122.712 17.3284C123.497 16.8269 122.594 18.0039 121.462 18.7886C119.595 20.0749 115.545 22.3684 112.261 22.4654C110.341 22.607 109.494 21.7859 109.742 20.5482C107.932 21.7535 105.51 23.2259 103.488 23.3796C101.868 23.5009 100.932 22.6111 101.355 21.3248Z" fill="#336699"/>
<path d="M121.604 17.891C123.321 15.9171 125.954 14.5377 128.025 14.384C128.518 14.3476 128.933 14.3517 129.311 14.473C129.804 14.6955 129.963 15.0514 129.67 15.5166C128.795 16.9121 125.413 18.6797 122.768 18.7283C121.437 20.7467 123.154 21.3938 125.519 21.2199C131.826 20.7507 149.178 15.0191 151.103 14.1009C151.465 13.927 151.901 13.9674 151.575 14.287C149.426 16.4065 134.036 21.3574 126.137 22.0976C122.039 22.4779 118.466 21.5597 121.604 17.891ZM123.602 17.7049C124.457 17.9355 127.472 16.4186 128.266 15.5813C126.341 15.5449 124.51 16.7139 123.602 17.7049Z" fill="#336699"/>
</svg>
