<svg width="48" height="39" viewBox="0 0 48 39" fill="none" xmlns="http://www.w3.org/2000/svg">
<rect x="2.16016" y="13.9141" width="23.0362" height="23.4035" stroke="#191918" stroke-width="2.5"/>
<path d="M8.45508 18.4203V6.33203H20.0624V18.4203" stroke="#191918" stroke-width="2.5"/>
<g filter="url(#filter0_d)">
<ellipse cx="31.3621" cy="15.061" rx="11.2996" ry="11.2075" fill="#336699"/>
</g>
<path d="M28.2525 10.1023V19.9023H26.8665V11.3203H24.6545V10.1023H28.2525ZM33.6162 14.0083C35.0162 14.0083 36.0428 14.2743 36.6962 14.8063C37.3588 15.329 37.6902 16.0477 37.6902 16.9623C37.6902 17.541 37.5502 18.0637 37.2702 18.5303C36.9995 18.9877 36.5842 19.3517 36.0242 19.6223C35.4735 19.8837 34.7922 20.0143 33.9802 20.0143C33.2895 20.0143 32.6222 19.9117 31.9782 19.7063C31.3342 19.4917 30.8022 19.1977 30.3822 18.8243L31.0262 17.7183C31.3622 18.0357 31.7915 18.2923 32.3142 18.4883C32.8368 18.675 33.3875 18.7683 33.9662 18.7683C34.7035 18.7683 35.2728 18.6143 35.6742 18.3063C36.0848 17.989 36.2902 17.5597 36.2902 17.0183C36.2902 16.4303 36.0662 15.987 35.6182 15.6883C35.1702 15.3803 34.4048 15.2263 33.3222 15.2263H31.0962L31.6142 10.1023H37.1442V11.3203H32.7902L32.5242 14.0083H33.6162Z" fill="white"/>
<defs>
<filter id="filter0_d" x="15.0625" y="0.853516" width="32.5992" height="32.4149" filterUnits="userSpaceOnUse" color-interpolation-filters="sRGB">
<feFlood flood-opacity="0" result="BackgroundImageFix"/>
<feColorMatrix in="SourceAlpha" type="matrix" values="0 0 0 0 0 0 0 0 0 0 0 0 0 0 0 0 0 0 127 0"/>
<feMorphology radius="1" operator="dilate" in="SourceAlpha" result="effect1_dropShadow"/>
<feOffset dy="2"/>
<feGaussianBlur stdDeviation="2"/>
<feColorMatrix type="matrix" values="0 0 0 0 0.0275 0 0 0 0 0.3355 0 0 0 0 0.4125 0 0 0 0.15 0"/>
<feBlend mode="normal" in2="BackgroundImageFix" result="effect1_dropShadow"/>
<feBlend mode="normal" in="SourceGraphic" in2="effect1_dropShadow" result="shape"/>
</filter>
</defs>
</svg>
