<svg width="271" height="296" viewBox="0 0 271 296" fill="none" xmlns="http://www.w3.org/2000/svg">
<path d="M270.896 84.9396H168.729L139.667 70.1529L138.927 70.0367L114.632 73.9047L113.867 74.3539L103.78 87.0609L103.509 87.8397V105.134L89.8374 109.06C64.3548 72.753 16.7566 4.76387 15.0862 1.71635C14.8932 1.22028 14.483 0.869913 13.972 0.769312C13.0403 0.58372 11.8878 1.12835 8.7555 4.45513C7.10766 6.20525 5.64754 7.95536 5.5867 8.02994L5.30858 8.6613L0 47.8888L0.00521471 48.2566L2.12934 61.5168L2.16758 61.6834L12.2546 94.8332L12.3102 94.9823L28.2359 130.344L28.2603 130.394L43.9774 161.473L36.1241 193.62L36.0876 193.918V241.435L36.1501 241.825L53.6681 295.418L55.8374 295.737L66.4546 280.267L66.644 279.828L70.7984 260.908L78.4345 254.55L78.8812 253.591V208.993L120.748 183.938L121.178 183.506L140.165 151.288L140.291 150.991L150.411 115.018L169.509 96.2208L271 87.4182L270.896 84.9396ZM160.135 83.3456L156.707 89.2134H141.566L140.488 73.3496L160.135 83.3456ZM141.802 97.6778L147.364 112.605L129.386 108.244C129.188 105.075 128.482 95.4351 128.205 91.6955H139.572L141.802 97.6778ZM137.192 148.157L106.199 130.835C108.32 128.986 112.653 125.197 116.945 121.394C120.456 118.282 123.255 115.765 125.264 113.916C126.219 113.039 126.999 112.305 127.599 111.724L137.192 148.157ZM137.987 72.6992L139.108 89.2134H127.475L117.093 76.026L137.987 72.6992ZM103.463 107.726L102.933 127.367L91.3601 111.2L103.463 107.726ZM90.2841 113.927L102.422 130.885L87.7602 144.322L90.2841 113.927ZM66.3885 162.564L55.3855 182.133L47.1341 162.564H66.3885ZM48.0692 160.08L67.2716 138.938V160.08H48.0692ZM56.75 184.724L67.9338 164.834L75.6551 204.417L56.75 184.724ZM86.161 149.019L115.174 179.46L70.9201 160.991L86.161 149.019ZM69.7242 158.788V138.031L84.1603 147.449L69.7242 158.788ZM85.2293 145.193L70.3291 135.471L87.7932 114.301L85.2293 145.193ZM68.7056 133.566L51.3354 101.724L87.1605 111.198L68.7056 133.566ZM49.698 98.7237L31.4204 65.22L84.0647 107.812L49.698 98.7237ZM46.5535 98.0958L15.3417 92.2904L32.4407 72.2257L46.5535 98.0958ZM50.8452 57.6836C63.5987 75.9271 76.4338 94.2365 83.2807 104.002L28.6444 59.7962L31.4308 29.8552C36.4317 37.043 42.7798 46.1457 50.8452 57.6836ZM26.2891 60.9479L30.1463 68.0195L6.52361 60.9722L27.1304 49.6008L26.1414 60.2298L26.2891 60.9479ZM7.68997 9.35684C9.88536 6.74468 12.192 4.36147 13.3149 3.51156C14.3683 5.16454 17.6431 10.0125 28.1577 25.1495H5.55193L7.68997 9.35684ZM2.45439 48.0415L5.05827 28.8041L26.4125 47.1708L4.27085 59.3886L2.45439 48.0415ZM5.18169 63.1629L30.4922 70.7132L13.5339 90.6114L5.18169 63.1629ZM30.4539 129.289L14.8915 94.7326L46.9533 100.696L30.5913 129.556L30.4539 129.289ZM48.8584 102.321L66.3034 134.3L32.5416 131.102L48.8584 102.321ZM32.6372 133.605L65.9209 136.756L45.5662 159.169L32.6372 133.605ZM45.587 165.219L53.6455 184.328L39.1382 191.617L45.587 165.219ZM38.5402 198.296L51.8829 220.198L38.5402 237.782V198.296ZM38.681 241.671L52.2132 223.837L53.4456 286.838L38.681 241.671ZM52.354 216.243L39.0617 194.427L53.8906 186.977L52.354 216.243ZM68.9177 259.262L68.4987 259.953L64.3044 279.051L55.9817 291.177L54.6711 224.151L75.9819 253.381L68.9177 259.262ZM76.4338 249.82L55.2308 220.737L76.4338 210.271V249.82ZM78.033 203.791L70.1431 163.351L90.0685 171.666L78.033 203.791ZM80.0459 205.415L91.626 174.506L98.8571 194.156L80.0459 205.415ZM101.004 192.874L93.7675 173.212L117.388 183.069L101.004 192.874ZM119.898 180.84L88.0418 147.416L104.235 132.574L137.415 151.118L119.898 180.84ZM139.156 145.982L129.926 110.931L147.797 115.266L139.156 145.982ZM149.814 112.149L143.938 95.6553C144.166 95.6657 150.975 95.4715 150.975 95.4715L150.186 91.6972H156.381L158.503 103.594L149.814 112.149ZM168.121 94.129L168.115 94.1307L160.622 101.508L158.692 90.6895L162.331 84.4626L167.886 87.2881L172.597 89.7546L168.121 94.129Z" fill="black"/>
</svg>
