<svg width="34" height="36" viewBox="0 0 34 36" fill="none" xmlns="http://www.w3.org/2000/svg">
<path d="M11.0354 23.6503C9.58261 22.1289 8.76074 20.0583 8.76074 17.8925C8.76074 15.7266 9.58261 13.656 11.0354 12.1346C12.487 10.6144 14.4482 9.76712 16.4854 9.76712C18.5227 9.76712 20.4839 10.6144 21.9355 12.1346C23.3882 13.656 24.2101 15.7266 24.2101 17.8925C24.2101 20.0583 23.3882 22.1289 21.9355 23.6503C20.4839 25.1706 18.5227 26.0178 16.4854 26.0178C14.4482 26.0178 12.487 25.1706 11.0354 23.6503ZM20.9191 22.4875C22.0882 21.2632 22.7392 19.6097 22.7392 17.8925C22.7392 16.1752 22.0882 14.5218 20.9191 13.2974C19.7489 12.0719 18.1542 11.3766 16.4836 11.3766C14.813 11.3766 13.2183 12.0719 12.0481 13.2974C10.879 14.5218 10.228 16.1752 10.228 17.8925C10.228 19.6097 10.879 21.2632 12.0481 22.4875C13.2183 23.7131 14.813 24.4084 16.4836 24.4084C18.1542 24.4084 19.7489 23.7131 20.9191 22.4875Z" stroke="#336699" stroke-width="1.5"/>
<path d="M7.70127 7.34489C8.3459 7.34489 8.92695 7.90244 8.92695 8.66402C8.92695 9.4256 8.34591 9.98315 7.70127 9.98315C7.05663 9.98315 6.47559 9.4256 6.47559 8.66402C6.47559 7.90244 7.05663 7.34489 7.70127 7.34489Z" stroke="#336699" stroke-width="1.5"/>
<path d="M0.84832 10.7925L0.848663 10.7843L0.848825 10.776C0.875333 9.42397 1.12053 8.08697 1.5735 6.82203C1.96252 5.77013 2.55587 4.81719 3.31378 4.02315C4.0716 3.22921 4.97708 2.61171 5.97128 2.20799C7.18678 1.7294 8.47108 1.47437 9.7679 1.45351L9.78482 1.45324L9.80171 1.45221C11.5286 1.34638 12.073 1.34612 16.5554 1.34612C21.0272 1.34612 21.5732 1.37103 23.3199 1.45279L23.3296 1.45324L23.3392 1.45345C24.6201 1.48034 25.8837 1.73289 27.083 2.20427C28.077 2.60862 28.9824 3.22631 29.7404 4.02011C30.4985 4.81407 31.0924 5.76668 31.4824 6.81826C31.9344 8.08335 32.1789 9.42022 32.2052 10.7721L32.2054 10.7854L32.2062 10.7987C32.3056 12.6074 32.3058 13.1868 32.3058 17.8785C32.3058 22.5605 32.2821 23.1344 32.2057 24.9683L32.2056 24.9683L32.2054 24.976C32.1628 26.3316 31.8997 27.6691 31.4278 28.9307L31.4268 28.9334C31.0375 29.9868 30.4436 30.9411 29.6848 31.7363C28.9272 32.5304 28.022 33.1483 27.0281 33.5527C25.8268 34.0242 24.5632 34.2767 23.2824 34.3036L23.2673 34.3039L23.2523 34.3048C21.5254 34.4106 20.9791 34.4109 16.4986 34.4109C12.0268 34.4109 11.4808 34.386 9.73409 34.3042L9.72424 34.3038L9.71438 34.3036C8.43556 34.2774 7.16966 34.0236 5.9706 33.5526C4.97638 33.1494 4.07089 32.5322 3.31318 31.7383C2.55515 30.9442 1.96194 29.9909 1.57342 28.9386C1.1192 27.6757 0.873984 26.34 0.848839 24.9894L0.848593 24.9762L0.847879 24.9629C0.750199 23.1538 0.75 22.5739 0.75 17.8823C0.75 13.1998 0.771963 12.626 0.84832 10.7925ZM26.5264 3.7468C25.6851 3.42199 24.8065 3.21716 23.9144 3.13718V3.11291L23.1997 3.07924C21.43 2.99588 20.9305 2.99588 16.4912 2.99588H16.4674C12.0057 2.99588 11.4956 3.01693 9.74424 3.09984C8.61552 3.12051 7.49869 3.33928 6.44043 3.74649L6.44039 3.74639L6.42844 3.75122C5.61524 4.08028 4.87931 4.58272 4.26681 5.22418C3.6544 5.86554 3.17873 6.63182 2.86843 7.4729L2.86838 7.47288L2.86535 7.48141C2.47474 8.58082 2.26757 9.74147 2.25233 10.913C2.15127 12.7765 2.15127 13.2886 2.15127 17.926V17.9514C2.15127 22.6246 2.17321 23.1564 2.2523 24.9882C2.26916 26.1597 2.47616 27.3202 2.86493 28.4203L2.86489 28.4203L2.86764 28.4278C3.49077 30.1328 4.7774 31.4967 6.42833 32.1651L6.42829 32.1651L6.4395 32.1695C7.5075 32.582 8.63575 32.8011 9.77546 32.8165C11.5592 32.9185 12.0495 32.9185 16.4737 32.9185H16.5004C20.9596 32.9185 21.4719 32.8994 23.2218 32.8165C24.3505 32.7958 25.4673 32.577 26.5256 32.1698L26.5256 32.1699L26.5381 32.1649C27.3529 31.8345 28.0898 31.3298 28.7022 30.6854C29.3146 30.0411 29.789 29.2715 30.0968 28.4273L30.0968 28.4273L30.0988 28.4215C30.4892 27.3227 30.6964 26.1627 30.7119 24.9919C30.8129 23.1264 30.8129 22.6163 30.8129 17.977V17.9514C30.8129 13.2815 30.7928 12.7467 30.7119 10.9165C30.6961 9.74409 30.489 8.58258 30.0991 7.482L30.0991 7.48198L30.096 7.47341C29.7863 6.63216 29.311 5.86565 28.6988 5.22414C28.0865 4.58254 27.3507 4.08007 26.5375 3.75117L26.5375 3.75109L26.5264 3.7468Z" stroke="#336699" stroke-width="1.5"/>
</svg>
