<svg width="225" height="284" viewBox="0 0 225 284" fill="none" xmlns="http://www.w3.org/2000/svg">
<path d="M225 162.646L207.56 139.941L221.094 145.889L213.062 128.331L206.71 108.291L190.054 14.284L190.025 14.1198L182.865 1.56927L142.105 40.6052L134.196 37.0433L92.5769 36.7604L84.6184 40.2325L44.4138 0.737305L37.0774 13.2024L19.0605 107.177L12.4245 127.144L4.14384 144.611L17.7601 138.817L0 161.323L11.0518 157.567L9.80281 185.207L21.2445 176.215L22.7794 207.021L30.4064 199.03L46.4717 238.132L47.5853 232.151L73.0518 264.671L70.0437 251.666L91.9477 274.393L97.3195 256.728L111.437 283.737L126.248 256.623L131.46 274.664L153.683 252.189L150.491 265.159L176.418 232.93L177.447 238.923L194.065 200.006L201.577 208.083L203.549 177.296L214.862 186.418L214.004 158.766L225 162.646ZM216.152 141.494L200.995 134.833L201.052 134.907L193.377 131.637L198.523 115.172L216.152 141.494ZM169.999 129.77L168.693 134.98L163.374 154.8L150.308 161.887L149.867 162.348L146.251 169.929L138.85 149.256L143.595 142.774L152.137 139.239L152.68 138.735L162.425 118.624C162.636 118.23 164.795 114.087 164.761 109.256L166.701 110.981L166.513 111.012L169.999 129.77ZM59.0293 110.325L60.9927 108.622C60.8911 113.451 62.9899 117.617 63.1965 118.014L72.6549 138.234L73.1919 138.745L81.6827 142.377L86.3354 148.912L78.6419 169.5L75.1331 161.88L74.6965 161.414L61.7327 154.179L56.6947 134.299L55.4633 129.074L59.2172 110.359L59.0293 110.325ZM125.958 136.262L129.465 157.277L121.288 155.799L121.097 155.782L103.999 155.639L103.8 155.654L95.6048 157.039L99.4101 136.066L99.4148 135.757L96.5795 116.706L112.814 134.201L129.057 116.969L125.956 135.952L125.958 136.262ZM129.818 159.392L130.523 163.613L120.804 159.956L120.076 159.934L113.463 161.969L111.563 161.913L104.952 159.802L104.225 159.816L94.4574 163.363L95.2219 159.151L104.079 157.654L120.98 157.795L129.818 159.392ZM97.274 135.881L93.6916 155.629L83.618 141.479L92.7847 122.043L92.843 122.052L93.3485 120.748L93.4547 120.686L93.4033 120.606L94.5578 117.629L97.274 135.881ZM87.344 100.199L74.8342 93.7058L80.6975 84.3967L89.2233 78.4442L97.9534 98.3172L94.5916 110.973L87.344 100.199ZM93.8375 113.617L91.9769 118.414L83.548 105.459L83.576 105.374L66.5933 100.305C70.4359 99.6062 77.3065 99.1236 85.8895 101.8L93.8375 113.617ZM65.0116 112.853L76.7906 119.734L90.5937 121.727L81.8624 140.241L74.4479 137.069L65.1447 117.181L65.1236 117.138C65.0991 117.092 62.991 113.035 63.1369 108.495L65.0116 112.853ZM73.3086 162.981L82.2558 182.415L69.6492 167.405L63.7299 157.635L73.3086 162.981ZM87.8214 151L93.1687 158.511L91.0139 170.384L80.2959 171.135L87.8214 151ZM131.397 155.888L128.095 136.103L131.07 117.882L132.183 120.871L132.129 120.951L132.235 121.014L132.723 122.324L132.781 122.317L141.671 141.854L131.397 155.888ZM127.95 98.5335L136.963 78.7604L145.403 84.8093L151.133 94.184L138.531 100.535L131.133 111.225L127.95 98.5335ZM137.334 151.327L144.573 171.547L133.866 170.674L131.88 158.777L137.334 151.327ZM161.326 158.237L155.27 167.936L142.455 182.799L151.675 163.471L161.326 158.237ZM160.509 117.725L160.487 117.767L150.902 137.549L143.443 140.637L134.975 122.026L148.806 120.19L160.681 113.445L162.616 109.111C162.693 113.638 160.535 117.679 160.509 117.725ZM142.267 105.814L133.639 118.696L131.848 113.879L139.963 102.153C146.89 100.082 152.639 100.07 156.265 100.434C157.409 100.548 158.417 100.707 159.276 100.874L142.239 105.729L142.267 105.814ZM156.596 98.4403C154.168 98.1896 150.845 98.0964 146.883 98.6111L153.003 95.5273L167.676 91.8755L191.301 94.9438L196.523 111.122L163.453 99.9079C163.131 99.7825 160.672 98.8607 156.596 98.4403ZM167.543 89.8233L153.127 93.4108L147.693 84.522L165.559 75.3759L188.919 92.5988L167.543 89.8233ZM146.317 82.9335L126.786 68.9365L134.608 56.3006L144.711 55.0826L163.922 73.9216L146.317 82.9335ZM135.207 77.5035L125.705 98.3504L129.496 113.468L112.826 131.153L96.1954 113.229L100.198 98.1596L90.9929 77.2063L101.542 69.8406L113.068 62.7577L124.768 70.0203L135.207 77.5035ZM79.8057 82.5098L62.3315 73.2982L81.8087 54.6788L91.8929 56.0121L99.5339 68.7346L79.8057 82.5098ZM78.4073 84.0827L72.8475 92.9094L58.483 89.1578L37.0751 91.688L60.6752 74.7348L78.4073 84.0827ZM58.3254 91.2077L72.9444 95.0259L79.0213 98.1796C75.0654 97.6194 71.7398 97.676 69.3083 97.8979C65.2275 98.2717 62.7564 99.1647 62.4319 99.2878L29.2077 110.123L34.6612 94.0042L58.3254 91.2077ZM62.8218 101.293L76.4439 105.359L61.7666 105.308L61.8203 105.432L61.63 105.331L33.8966 129.376L28.8423 112.375L62.8218 101.293ZM56.6305 112.405L53.2804 129.108L54.4536 134.084L37.7358 145.009L34.4826 131.608L56.6305 112.405ZM54.9765 136.194L59.7939 155.202L65.4236 164.493L38.9054 146.696L54.9765 136.194ZM68.0173 168.709L70.7091 171.914L74.5109 210.314L55.5286 188.782L53.5524 172.163L43.3948 156.464L39.9034 149.84L68.0173 168.709ZM73.144 174.812L85.6397 189.691L98.9666 206.861L99.821 207.274L109.833 207.349L94.8181 229.649L75.1576 194.799L75.1237 194.815L73.144 174.812ZM80.324 173.155L91.517 172.371C92.0306 172.807 92.6901 173.192 93.4967 173.526C95.2033 174.741 97.197 176.519 97.7152 178.313C98.6923 181.689 98.2452 184.273 98.2417 184.296L99.1487 185.467L107.105 186.499L108.691 189.164L101.519 191.413L87.2576 188.216L80.324 173.155ZM110.464 188.023L109.449 186.316L112.235 185.859L112.248 185.873L115.207 186.394L114.174 188.078H112.338L110.464 188.023ZM123.065 191.58L115.943 189.219L117.548 186.603L125.519 185.663L126.442 184.505C126.437 184.479 126.029 181.89 127.052 178.524C127.596 176.74 129.622 174.98 131.348 173.782C132.156 173.458 132.818 173.082 133.336 172.653L144.515 173.565L137.369 188.545L123.065 191.58ZM138.968 190.039L151.673 175.304L149.409 195.281L149.373 195.263L129.217 229.9L114.285 207.383L124.537 207.46L125.4 207.058L138.968 190.039ZM154.148 172.434L156.886 169.261L185.265 150.713L181.681 157.295L171.302 172.876L169.09 189.472L149.804 210.786L154.148 172.434ZM159.54 165.072L165.298 155.848L170.385 136.895L186.306 147.579L159.54 165.072ZM170.937 134.792L172.181 129.83L169.068 113.088L190.941 132.541L187.499 145.906L170.937 134.792ZM164.17 105.96L163.979 106.058L164.034 105.935L149.312 105.819L163.036 101.909L196.856 113.376L191.56 130.319L164.17 105.96ZM211.03 128.965L211.048 129.021L212.6 132.416L199.146 112.326L194.42 97.6849L204.707 109.012L211.03 128.965ZM203.978 105.11L193.075 93.1046L174.147 79.1508L190.077 86.3912L189.71 24.5771L203.978 105.11ZM187.92 83.172L166.682 73.519L164.157 43.7467L182.069 13.3655L187.516 15.34L187.92 83.172ZM186.942 12.9728L181.101 10.8563L161.974 43.3008L164.361 71.4424L146.488 53.9156L182.492 5.17336L186.942 12.9728ZM143.188 42.4411L174.532 12.4248L144.503 53.0759L135.968 54.1053L143.188 42.4411ZM93.0403 38.7782L133.704 39.0544L140.822 42.2614L125.032 67.7717L113.074 60.3495L101.3 67.5843L85.8767 41.9042L93.0403 38.7782ZM83.5106 42.0551L90.5657 53.8013L82.0434 52.6743L52.5894 11.6793L83.5106 42.0551ZM44.7371 4.34361L80.0485 53.4907L61.9276 70.8134L64.7128 42.7029L46.0386 10.0298L40.1147 12.1974L44.7371 4.34361ZM39.3653 14.6334L45.0523 12.5524L62.5241 43.1222L59.5779 72.8645L38.2004 82.2779L39.3653 14.6334ZM37.0541 24.6636L36.0059 85.4683L52.028 78.4132L32.9091 92.1473L21.8375 104.028L37.0541 24.6636ZM14.4287 127.859L21.0542 107.923L31.5014 96.712L26.5661 111.298L12.8319 131.228L14.4287 127.859ZM9.14913 140.271L27.1486 114.152L32.0605 130.673L24.3424 133.856L24.4008 133.782L9.14913 140.271ZM5.95195 157.156L21.7686 137.115L32.5484 132.671L35.8004 146.07L11.807 155.166L5.95195 157.156ZM21.5106 173.381L12.1444 180.742L13.2264 156.801L36.5277 147.968L41.1372 156.715L21.5106 173.381ZM29.9664 196.477L24.6704 202.026L23.3024 174.572L42.2146 158.513L51.2039 172.406L29.9664 196.477ZM45.6931 230.656L31.9998 197.325L51.7326 174.958L53.4217 189.16L45.6931 230.656ZM48.0966 229.409L54.6146 194.413L68.8321 255.889L48.0966 229.409ZM90.9497 270.36L69.1321 247.722L56.4788 193.013L74.993 214.013L95.913 254.038L90.9497 270.36ZM110.437 277.268L76.9423 213.183L75.6303 199.93L94.6546 233.654L111.159 209.14L110.437 277.268ZM100.374 205.263L90.9649 193.138L98.6549 198.025L99.4802 198.173L111.572 195.685L112.92 195.732L125.009 198.365L125.836 198.225L133.59 193.429L124.013 205.441L100.374 205.263ZM111.477 279.258L111.451 279.207H111.505L111.477 279.258ZM112.576 277.247L113.291 209.69L129.337 233.885L148.832 200.385L147.332 213.625L112.576 277.247ZM132.514 270.642L127.697 253.97L149.267 214.484L168.078 193.695L154.652 248.253L132.514 270.642ZM154.836 256.421L169.923 195.114L175.945 230.18L154.836 256.421ZM178.33 231.455L171.19 189.878L173.081 175.694L192.495 198.282L178.33 231.455ZM199.755 203.066L194.539 197.458L173.643 173.147L182.83 159.356L201.512 175.628L199.755 203.066ZM203.32 174.46L183.928 157.57L188.665 148.878L211.839 157.975L212.581 181.927L203.32 174.46ZM189.42 146.991L192.862 133.628L203.578 138.194L219.111 158.414L213.283 156.357L189.42 146.991Z" fill="black"/>
</svg>
